<?xml version="1.0" encoding="utf-8"?>
<!-- Generator: Adobe Illustrator 27.5.0, SVG Export Plug-In . SVG Version: 6.00 Build 0)  -->
<svg version="1.1" id="Layer_1" xmlns="http://www.w3.org/2000/svg" x="0px"
     y="0px"
     viewBox="0 0 181 50" style="enable-background:new 0 0 181 50;" xml:space="preserve">
<style type="text/css">
	.st0{fill:#3AA6A2;}
</style>
    <path class="st0" d="M37.5,45.5c3.3,0,6-2.8,6-6.4c0-3.5-2.7-6.4-6-6.4c-3.3,0-6,2.8-6,6.4C31.5,42.7,34.1,45.5,37.5,45.5z
	 M33.5,39.2c-0.7-1.3,1.1-2.5,1.8-1.2l1.1,1.8l3.3-3.9c0.9-1.1,2.5,0.4,1.6,1.5l-4.2,4.9c-0.5,0.6-1.3,0.6-1.7-0.1
	C35.4,42.3,33.5,39.2,33.5,39.2z M31.7,45.3H13.8c-2.7,0-5-2.2-5.2-5.1H8.5c-2.8,0-5.2-2.5-5.2-5.5v-27c0-3,2.3-5.5,5.2-5.5h19.8
	c2.7,0,5,2.2,5.2,5.1h0.1c2.8,0,5.2,2.5,5.2,5.5v17.9c3.9,0.7,6.8,4.3,6.8,8.5c0,4.8-3.6,8.6-8.1,8.6C35.3,47.8,33.2,46.9,31.7,45.3
	z M36.6,30.6V12.7c0-1.8-1.4-3.2-3-3.2H13.8c-1.7,0-3,1.4-3,3.2v27c0,1.8,1.4,3.2,3,3.2h16.3c-0.5-1.1-0.8-2.4-0.8-3.8
	C29.3,34.7,32.5,31,36.6,30.6z M8.6,37.9V12.7c0-3,2.3-5.5,5.2-5.5h17.5c-0.2-1.6-1.5-2.8-3-2.8H8.5c-1.7,0-3,1.4-3,3.2v27
	c0,1.8,1.4,3.2,3,3.2C8.5,37.9,8.6,37.9,8.6,37.9z"/>
    <g>
	<path class="st0" d="M22.7,23.6c-0.1,1.7-0.5,3-1.3,3.8c-0.8,0.9-1.9,1.3-3.3,1.3c-1.5,0-2.7-0.6-3.5-1.7c-0.8-1.1-1.2-2.7-1.2-4.7
		v-2.5c0-2,0.4-3.6,1.2-4.7c0.8-1.1,2-1.7,3.5-1.7c1.5,0,2.6,0.5,3.3,1.4c0.8,0.9,1.2,2.2,1.3,3.9h-2.7c0-1-0.2-1.8-0.4-2.2
		c-0.3-0.4-0.8-0.6-1.5-0.6c-0.7,0-1.2,0.3-1.5,0.8c-0.3,0.6-0.5,1.5-0.5,2.8v2.8c0,1.5,0.1,2.5,0.4,3c0.3,0.6,0.8,0.8,1.5,0.8
		c0.7,0,1.2-0.2,1.5-0.6c0.3-0.4,0.4-1.1,0.5-2.1H22.7z"/>
        <path class="st0" d="M28.7,24.5L31,13.7h3l-3.8,14.9h-2.8l-3.8-14.9h3L28.7,24.5z"/>
</g>
    <g>
	<path class="st0" d="M52.1,33.4c-1.9,0-3.6-0.4-5-1.2c-1.4-0.8-2.6-1.9-3.4-3.4c-0.8-1.5-1.2-3.2-1.2-5.1s0.4-3.7,1.2-5.1
		c0.8-1.5,2-2.6,3.4-3.4c1.5-0.8,3.1-1.2,5-1.2c1,0,1.9,0.1,2.7,0.3c0.8,0.2,1.5,0.5,2.1,0.8l-0.4,3.3c-0.7-0.3-1.4-0.6-2.1-0.8
		c-0.7-0.2-1.5-0.3-2.4-0.3c-1.3,0-2.4,0.3-3.3,0.8c-0.9,0.6-1.5,1.3-2,2.3c-0.4,1-0.7,2.1-0.7,3.3s0.2,2.4,0.7,3.3
		c0.4,1,1.1,1.7,2,2.3c0.9,0.6,1.9,0.8,3.2,0.8c0.9,0,1.7-0.1,2.4-0.3c0.7-0.2,1.4-0.5,2.1-0.8l0.4,3.3c-0.7,0.3-1.5,0.6-2.3,0.8
		C53.9,33.3,53,33.4,52.1,33.4z"/>
        <path class="st0" d="M62.9,33.3c-0.7,0-1.4-0.2-1.9-0.5c-0.6-0.3-1.1-0.8-1.4-1.4c-0.3-0.6-0.5-1.3-0.5-2.2c0-0.8,0.2-1.4,0.5-1.9
		c0.4-0.5,0.8-1,1.4-1.3c0.6-0.4,1.2-0.6,1.9-0.9c0.7-0.2,1.3-0.4,2-0.5c0.7-0.1,1.2-0.2,1.7-0.2c0-0.8-0.2-1.3-0.6-1.7
		c-0.4-0.3-1-0.5-1.8-0.5c-0.6,0-1.2,0.1-1.7,0.2c-0.6,0.2-1.2,0.4-1.9,0.8l-0.3-2.7c0.8-0.4,1.6-0.7,2.4-0.9
		c0.8-0.2,1.6-0.3,2.4-0.3c1,0,1.9,0.2,2.6,0.5c0.7,0.4,1.3,0.9,1.7,1.7c0.4,0.8,0.6,1.8,0.6,3.1v3.6c0,0.7,0,1.1,0.1,1.4
		s0.2,0.5,0.3,0.6c0.2,0.1,0.4,0.1,0.7,0.1h0.4l-0.3,2.7H70c-0.5,0-0.9-0.1-1.3-0.2c-0.4-0.1-0.7-0.3-1-0.5
		c-0.3-0.2-0.5-0.5-0.7-0.8c-0.4,0.5-1,0.9-1.8,1.1C64.5,33.1,63.7,33.3,62.9,33.3z M64.3,30.7c0.3,0,0.7-0.1,1.1-0.2
		c0.4-0.2,0.8-0.4,1.2-0.7v-3c-0.6,0-1.2,0.1-1.9,0.3c-0.6,0.2-1.1,0.4-1.6,0.8s-0.6,0.8-0.6,1.3c0,0.5,0.1,0.9,0.4,1.2
		C63.2,30.6,63.7,30.7,64.3,30.7z"/>
        <path class="st0" d="M74,33V19.7h3.1l0.1,1.4c0.3-0.4,0.8-0.7,1.4-1.1c0.6-0.4,1.3-0.6,2-0.6c0.2,0,0.4,0,0.6,0.1l-0.2,3.3
		c-0.2-0.1-0.4-0.1-0.6-0.1c-0.2,0-0.4,0-0.6,0c-0.6,0-1.1,0.1-1.5,0.4c-0.5,0.3-0.8,0.6-1,0.9V33H74z"/>
        <path class="st0" d="M89.6,33.3c-1.6,0-3-0.3-4-1c-1.1-0.6-1.9-1.5-2.4-2.6c-0.5-1.1-0.8-2.2-0.8-3.5c0-1.2,0.3-2.3,0.8-3.4
		c0.5-1,1.2-1.9,2.2-2.5c1-0.6,2.2-0.9,3.5-0.9c1.3,0,2.3,0.3,3.2,0.8c0.9,0.5,1.5,1.2,1.9,2.1c0.4,0.9,0.6,1.8,0.6,2.9
		c0,0.3,0,0.6-0.1,0.9c0,0.3-0.1,0.6-0.2,0.9h-8.6c0.1,0.8,0.4,1.5,0.8,2c0.4,0.5,0.9,0.9,1.5,1.1c0.6,0.2,1.2,0.4,1.8,0.4
		c0.8,0,1.5-0.1,2.2-0.3c0.7-0.2,1.3-0.5,1.8-0.8l0.2,2.8c-0.5,0.3-1.1,0.5-1.9,0.7S90.6,33.3,89.6,33.3z M85.9,24.8h5.4
		c0-0.4-0.1-0.8-0.2-1.2c-0.2-0.4-0.4-0.7-0.8-1c-0.4-0.3-0.8-0.4-1.4-0.4c-0.9,0-1.5,0.2-2,0.7C86.4,23.4,86.1,24,85.9,24.8z"/>
        <path class="st0" d="M104.1,33.3c-1.6,0-3-0.3-4-1c-1.1-0.6-1.9-1.5-2.4-2.6s-0.8-2.2-0.8-3.5c0-1.2,0.3-2.3,0.8-3.4
		c0.5-1,1.2-1.9,2.2-2.5c1-0.6,2.2-0.9,3.6-0.9c1.3,0,2.3,0.3,3.2,0.8c0.9,0.5,1.5,1.2,1.9,2.1c0.4,0.9,0.6,1.8,0.6,2.9
		c0,0.3,0,0.6-0.1,0.9c0,0.3-0.1,0.6-0.2,0.9h-8.6c0.1,0.8,0.4,1.5,0.8,2c0.4,0.5,0.9,0.9,1.5,1.1c0.6,0.2,1.2,0.4,1.8,0.4
		c0.8,0,1.5-0.1,2.2-0.3c0.7-0.2,1.3-0.5,1.8-0.8l0.2,2.8c-0.5,0.3-1.1,0.5-1.9,0.7C105.9,33.2,105,33.3,104.1,33.3z M100.3,24.8
		h5.4c0-0.4-0.1-0.8-0.2-1.2c-0.2-0.4-0.4-0.7-0.8-1c-0.4-0.3-0.8-0.4-1.4-0.4c-0.9,0-1.5,0.2-2,0.7S100.5,24,100.3,24.8z"/>
        <path class="st0" d="M112,33V19.7h3.1l0.1,1.4c0.3-0.4,0.8-0.7,1.4-1.1c0.6-0.4,1.3-0.6,2-0.6c0.2,0,0.4,0,0.6,0.1l-0.2,3.3
		c-0.2-0.1-0.4-0.1-0.6-0.1c-0.2,0-0.4,0-0.6,0c-0.6,0-1.1,0.1-1.5,0.4s-0.8,0.6-1,0.9V33H112z"/>
        <path class="st0" d="M126.3,33l-6.6-18.7h3.4l5.2,14.7h-0.7l5.2-14.7h3.4L129.5,33H126.3z"/>
        <path class="st0" d="M138.2,17.6v-3.3h3.3v3.3H138.2z M138.2,33V19.7h3.3V33H138.2z"/>
        <path class="st0" d="M149.1,33.3c-0.9,0-1.7-0.1-2.4-0.3c-0.7-0.2-1.4-0.4-2.1-0.7l0.3-2.8c0.7,0.4,1.4,0.7,2,1
		c0.7,0.2,1.4,0.4,2.1,0.4c0.7,0,1.2-0.1,1.5-0.3c0.3-0.2,0.5-0.6,0.5-1c0-0.3-0.1-0.6-0.3-0.9c-0.2-0.2-0.5-0.4-0.8-0.6
		c-0.4-0.2-0.8-0.4-1.4-0.6c-0.8-0.3-1.5-0.6-2.1-1c-0.6-0.4-1-0.8-1.3-1.3c-0.3-0.5-0.4-1.1-0.4-1.9c0-0.8,0.2-1.4,0.6-2
		c0.4-0.6,1-1,1.7-1.4c0.7-0.3,1.6-0.5,2.6-0.5c0.8,0,1.6,0.1,2.3,0.3c0.7,0.2,1.3,0.4,1.9,0.8l-0.3,2.8c-0.6-0.4-1.2-0.8-1.8-1
		c-0.6-0.3-1.3-0.4-2-0.4c-0.6,0-1,0.1-1.3,0.3c-0.3,0.2-0.5,0.6-0.5,1c0,0.5,0.2,0.9,0.7,1.2c0.4,0.3,1.1,0.6,2.1,0.9
		c0.6,0.2,1.2,0.5,1.6,0.7c0.5,0.3,0.8,0.5,1.1,0.9c0.3,0.3,0.5,0.7,0.7,1.1c0.1,0.4,0.2,0.9,0.2,1.4c0,0.8-0.2,1.6-0.6,2.2
		c-0.4,0.6-1,1-1.8,1.4C151.2,33.1,150.2,33.3,149.1,33.3z"/>
        <path class="st0" d="M161.6,33.3c-0.8,0-1.5-0.2-2-0.5c-0.5-0.3-0.9-0.8-1.2-1.3c-0.2-0.5-0.4-1.1-0.4-1.7v-7.4h-1.9l0.3-2.7h1.6
		v-2.9l3.3-0.3v3.3h2.9v2.7h-2.9v6c0,0.7,0,1.2,0.1,1.5s0.3,0.5,0.5,0.6c0.3,0.1,0.7,0.1,1.4,0.1h0.9l-0.3,2.7H161.6z"/>
        <path class="st0" d="M170,33.3c-0.7,0-1.4-0.2-1.9-0.5c-0.6-0.3-1.1-0.8-1.4-1.4c-0.3-0.6-0.5-1.3-0.5-2.2c0-0.8,0.2-1.4,0.5-1.9
		c0.4-0.5,0.8-1,1.4-1.3c0.6-0.4,1.2-0.6,1.9-0.9c0.7-0.2,1.3-0.4,2-0.5c0.7-0.1,1.2-0.2,1.7-0.2c0-0.8-0.2-1.3-0.6-1.7
		c-0.4-0.3-1-0.5-1.8-0.5c-0.6,0-1.2,0.1-1.7,0.2c-0.6,0.2-1.2,0.4-1.9,0.8l-0.3-2.7c0.8-0.4,1.6-0.7,2.4-0.9
		c0.8-0.2,1.6-0.3,2.4-0.3c1,0,1.9,0.2,2.6,0.5c0.7,0.4,1.3,0.9,1.7,1.7c0.4,0.8,0.6,1.8,0.6,3.1v3.6c0,0.7,0,1.1,0.1,1.4
		s0.2,0.5,0.3,0.6c0.2,0.1,0.4,0.1,0.7,0.1h0.4l-0.3,2.7h-1.2c-0.5,0-0.9-0.1-1.3-0.2c-0.4-0.1-0.7-0.3-1-0.5
		c-0.3-0.2-0.5-0.5-0.7-0.8c-0.4,0.5-1,0.9-1.8,1.1C171.6,33.1,170.8,33.3,170,33.3z M171.4,30.7c0.3,0,0.7-0.1,1.1-0.2
		c0.4-0.2,0.8-0.4,1.2-0.7v-3c-0.6,0-1.2,0.1-1.9,0.3c-0.6,0.2-1.1,0.4-1.6,0.8s-0.6,0.8-0.6,1.3c0,0.5,0.1,0.9,0.4,1.2
		S170.8,30.7,171.4,30.7z"/>
</g>
</svg>
